<svg xmlns="http://www.w3.org/2000/svg" xmlns:xlink="http://www.w3.org/1999/xlink" width="144" height="144" viewBox="0 0 144 144">
    <defs>
        <path id="a" d="M.026 0h6.94v7H.025z"/>
    </defs>
    <g fill="none" fill-rule="evenodd">
        <path fill="#3143CA" d="M0 147h144V-21H0z"/>
        <path fill="#FFDB00" d="M110.318 100.204H95.505l1.656-26.511h7.345a3.109 3.109 0 0 0 2.914-1.973 3.06 3.06 0 0 0-.795-3.406l-34.547-31.5a3.165 3.165 0 0 0-4.1-.118l-38.827 31.5a3.049 3.049 0 0 0-.964 3.44 3.094 3.094 0 0 0 2.946 2.057h7.114l-2.752 28.783a3.091 3.091 0 0 0 .827 2.374 3.15 3.15 0 0 0 2.29.988h17.514c1.622 0 2.96-1.207 3.11-2.78l2.404-21.743h12.033l-2.017 21.132c-.083.867.179 1.762.8 2.378.542.537 1.39.94 1.958.991.019.002 37.04.184 37.04.184 1.873 0 3.546-.929 3.546-2.813 0-2.942-3.721-2.983-4.682-2.983"/>
        <g transform="translate(119 100)">
            <mask id="b" fill="#fff">
                <use xlink:href="#a"/>
            </mask>
            <path fill="#FFF" d="M2.597 1.355a2.597 2.597 0 1 0 0 5.194 2.597 2.597 0 0 0 0-5.194" mask="url(#b)"/>
        </g>
        <path fill="#FFDB00" d="M117 94c0-1.105-.942-2-2.104-2h-12.792c-1.162 0-2.104.895-2.104 2s.942 2 2.104 2h12.792c1.162 0 2.104-.895 2.104-2"/>
    </g>
</svg>
