<svg xmlns="http://www.w3.org/2000/svg" xmlns:xlink="http://www.w3.org/1999/xlink" width="192" height="192" viewBox="0 0 192 192">
    <defs>
        <path id="a" d="M.04 0h10.905v11H.04z"/>
    </defs>
    <g fill="none" fill-rule="evenodd">
        <path fill="#3143CA" d="M-12 202h214V-47H-12z"/>
        <path fill="#FFDB00" d="M147.057 133.39h-21.963L127.55 94h10.891a4.61 4.61 0 0 0 4.321-2.93c.7-1.78.237-3.767-1.18-5.061l-51.224-46.8c-1.69-1.543-4.303-1.618-6.08-.174l-57.57 46.8c-1.536 1.248-2.097 3.254-1.43 5.11C25.945 92.801 27.66 94 29.645 94h10.548l-4.08 42.764-.004.06a4.598 4.598 0 0 0 1.23 3.468 4.667 4.667 0 0 0 3.395 1.467h25.97c2.405 0 4.39-1.792 4.613-4.13l3.563-32.304h17.843l-2.992 31.397c-.123 1.287.265 2.617 1.187 3.532.804.798 2.062 1.396 2.902 1.473.029.003 54.922.273 54.922.273 2.778 0 5.258-1.38 5.258-4.18 0-4.37-5.518-4.43-6.943-4.43"/>
        <g transform="translate(160 132)">
            <mask id="b" fill="#fff">
                <use xlink:href="#a"/>
            </mask>
            <path fill="#FFF" d="M4.08 2.129a4.08 4.08 0 1 0 0 8.162 4.08 4.08 0 0 0 0-8.162" mask="url(#b)"/>
        </g>
        <path fill="#FFDB00" d="M158 124c0-1.657-1.385-3-3.094-3h-18.812c-1.709 0-3.094 1.343-3.094 3s1.385 3 3.094 3h18.812c1.709 0 3.094-1.343 3.094-3"/>
    </g>
</svg>
