<svg xmlns="http://www.w3.org/2000/svg" xmlns:xlink="http://www.w3.org/1999/xlink" width="72" height="72" viewBox="0 0 72 72">
    <defs>
        <path id="a" d="M.015 0H3.98v4H.015z"/>
    </defs>
    <g fill="none" fill-rule="evenodd">
        <path fill="#3143CA" d="M-3 78h79v-92H-3z"/>
        <path fill="#FFDB00" d="M54.47 51.854h-8.002l.895-14.392h3.968c.701 0 1.32-.42 1.574-1.071a1.667 1.667 0 0 0-.43-1.85l-18.663-17.1a1.704 1.704 0 0 0-2.215-.063l-20.975 17.1a1.66 1.66 0 0 0-.52 1.867 1.672 1.672 0 0 0 1.59 1.117h3.844l-1.487 15.625a1.683 1.683 0 0 0 1.683 1.825h9.462c.877 0 1.6-.655 1.681-1.51L28.174 41.6h6.5l-1.09 11.472c-.045.47.097.957.433 1.29.293.293.75.511 1.057.54l20.01.099C56.096 55 57 54.496 57 53.473c0-1.597-2.01-1.62-2.53-1.62"/>
        <g transform="translate(60 52)">
            <mask id="b" fill="#fff">
                <use xlink:href="#a"/>
            </mask>
            <path fill="#FFF" d="M1.484.774a1.484 1.484 0 1 0 0 2.968 1.484 1.484 0 0 0 0-2.968" mask="url(#b)"/>
        </g>
        <path fill="#FFDB00" d="M59 49c0-.552-.499-1-1.114-1h-6.772c-.615 0-1.114.448-1.114 1s.499 1 1.114 1h6.772c.615 0 1.114-.448 1.114-1"/>
    </g>
</svg>
