<svg xmlns="http://www.w3.org/2000/svg" xmlns:xlink="http://www.w3.org/1999/xlink" width="48" height="48" viewBox="0 0 48 48">
    <defs>
        <path id="a" d="M.011 0h2.974v3H.011z"/>
    </defs>
    <g fill="none" fill-rule="evenodd">
        <path fill="#3143CA" d="M0 53h53V-9H0z"/>
        <path fill="#FFDB00" d="M36.385 34.013h-5.107l.57-9.09h2.533c.448 0 .843-.265 1.005-.676.163-.411.055-.87-.274-1.168l-11.913-10.8c-.393-.356-1-.373-1.414-.04l-13.388 10.8a1.042 1.042 0 0 0-.332 1.18c.155.427.554.704 1.015.704h2.453l-.948 9.869-.002.014c-.021.293.083.584.287.8.203.215.49.338.79.338h6.039c.559 0 1.02-.413 1.072-.953l.83-7.455h4.148l-.695 7.246c-.029.297.061.604.276.815.187.184.48.322.675.34L36.777 36c.646 0 1.223-.318 1.223-.965 0-1.008-1.283-1.022-1.615-1.022"/>
        <g transform="translate(41 34)">
            <mask id="b" fill="#fff">
                <use xlink:href="#a"/>
            </mask>
            <path fill="#FFF" d="M1.113.58a1.113 1.113 0 1 0 0 2.227 1.113 1.113 0 0 0 0-2.226" mask="url(#b)"/>
        </g>
        <path fill="#FFDB00" d="M40 31c0-.552-.388-1-.866-1h-5.268c-.478 0-.866.448-.866 1s.388 1 .866 1h5.268c.478 0 .866-.448.866-1"/>
    </g>
</svg>
