<svg xmlns="http://www.w3.org/2000/svg" xmlns:xlink="http://www.w3.org/1999/xlink" width="512" height="512" viewBox="0 0 512 512">
    <defs>
        <path id="a" d="M.114 0h30.732v31H.114z"/>
    </defs>
    <g fill="none" fill-rule="evenodd">
        <path fill="#3143CA" d="M-25 536h574v-668H-25z"/>
        <path fill="#FFDB00" d="M402.432 355.817h-58.738l6.564-106.047h29.129c5.15 0 9.684-3.096 11.556-7.89 1.87-4.793.633-10.142-3.156-13.625L250.792 102.256c-4.518-4.155-11.508-4.357-16.26-.47l-153.967 126c-4.108 3.361-5.609 8.761-3.823 13.759 1.787 4.996 6.371 8.225 11.68 8.225h28.211l-10.91 115.132a12.43 12.43 0 0 0 3.278 9.498 12.443 12.443 0 0 0 9.08 3.952h69.452c6.433 0 11.742-4.827 12.337-11.122l9.531-86.971h47.718l-8.001 84.53c-.33 3.467.71 7.046 3.174 9.51 2.15 2.148 5.514 3.759 7.763 3.967.075.008 146.884.734 146.884.734 7.429 0 14.061-3.714 14.061-11.253 0-11.766-14.757-11.93-18.568-11.93"/>
        <g transform="translate(435 350)">
            <mask id="b" fill="#fff">
                <use xlink:href="#a"/>
            </mask>
            <path fill="#FFF" d="M11.5 6C5.149 6 0 11.149 0 17.5S5.149 29 11.5 29 23 23.851 23 17.5 17.851 6 11.5 6" mask="url(#b)"/>
        </g>
        <path fill="#FFDB00" d="M431 330.5c0-4.695-3.767-8.5-8.415-8.5h-51.17c-4.647 0-8.415 3.805-8.415 8.5s3.768 8.5 8.415 8.5h51.17c4.648 0 8.415-3.805 8.415-8.5"/>
        <path fill="#FFF" fill-opacity="0" d="M0 0h512v512H0z"/>
    </g>
</svg>
