<svg xmlns="http://www.w3.org/2000/svg" xmlns:xlink="http://www.w3.org/1999/xlink" width="96" height="96" viewBox="0 0 96 96">
    <defs>
        <path id="a" d="M.018 0h4.957v5H.018z"/>
    </defs>
    <g fill="none" fill-rule="evenodd">
        <path fill="#3143CA" d="M-6 105h108V-21H-6z"/>
        <path fill="#FFDB00" d="M74.502 69.695H63.435L64.672 50h5.488c.97 0 1.824-.575 2.177-1.465.352-.89.12-1.884-.594-2.53l-25.811-23.4a2.375 2.375 0 0 0-3.063-.088l-29.009 23.4a2.257 2.257 0 0 0-.72 2.556A2.311 2.311 0 0 0 15.34 50h5.316L18.6 71.382l-.003.03c-.046.636.18 1.267.62 1.734a2.36 2.36 0 0 0 1.711.734h13.085c1.213 0 2.213-.897 2.325-2.066l1.796-16.152h8.99l-1.508 15.699c-.062.644.134 1.308.598 1.766.406.399 1.04.698 1.463.737L75.35 74c1.4 0 2.649-.69 2.649-2.09 0-2.185-2.78-2.215-3.498-2.215"/>
        <g transform="translate(82 70)">
            <mask id="b" fill="#fff">
                <use xlink:href="#a"/>
            </mask>
            <path fill="#FFF" d="M1.855.968a1.855 1.855 0 1 0 0 3.71 1.855 1.855 0 0 0 0-3.71" mask="url(#b)"/>
        </g>
        <path fill="#FFDB00" d="M80 65.5c0-.828-.72-1.5-1.609-1.5H68.61C67.72 64 67 64.672 67 65.5s.72 1.5 1.609 1.5h9.782C79.28 67 80 66.328 80 65.5"/>
    </g>
</svg>
