<svg xmlns="http://www.w3.org/2000/svg" width="25" height="24" viewBox="0 0 25 24">
    <g fill="none" fill-rule="evenodd">
        <ellipse cx="12.985" cy="12" fill="#F22507" rx="11.985" ry="12" transform="rotate(90 12.985 12)"/>
        <path d="M4 3h18v18H4z"/>
        <path fill="#FFF" fill-rule="nonzero" d="M17.613 6.758C17.48 6.315 17.107 6 16.667 6H9.333c-.44 0-.806.315-.946.757L7 11.25v6c0 .412.3.75.667.75h.666C8.7 18 9 17.662 9 17.25v-.75h8v.75c0 .412.3.75.667.75h.666c.367 0 .667-.338.667-.75v-6l-1.387-4.492zm-8.28 7.492c-.553 0-1-.502-1-1.125S8.78 12 9.333 12c.554 0 1 .502 1 1.125s-.446 1.125-1 1.125zm7.334 0c-.554 0-1-.502-1-1.125s.446-1.125 1-1.125c.553 0 1 .502 1 1.125s-.447 1.125-1 1.125zM8.333 10.5l1-3.375h7.334l1 3.375H8.333z"/>
    </g>
</svg>
