<svg xmlns="http://www.w3.org/2000/svg" width="25" height="24" viewBox="0 0 25 24">
    <g fill="none" fill-rule="evenodd">
        <ellipse cx="12.985" cy="12" fill="#A4A4A4" rx="11.985" ry="12" transform="rotate(90 12.985 12)"/>
        <path d="M5.312 4h15v15h-15z"/>
        <path fill="#FFF" fill-rule="nonzero" d="M13.927 7.419c.677 0 1.23-.545 1.23-1.21 0-.665-.553-1.209-1.23-1.209-.677 0-1.23.544-1.23 1.21 0 .664.553 1.209 1.23 1.209zM11.65 9.474L9.927 18h1.292l1.108-4.837 1.292 1.21V18h1.231v-4.535l-1.292-1.21.37-1.813a4.54 4.54 0 0 0 3.384 1.511v-1.209c-1.17 0-2.154-.604-2.646-1.451l-.616-.967c-.246-.363-.615-.605-1.046-.605-.185 0-.308.06-.492.06l-3.2 1.33v2.842h1.23V9.898l1.108-.424z"/>
    </g>
</svg>
