<svg xmlns="http://www.w3.org/2000/svg" width="24" height="24" viewBox="0 0 24 24">
    <g fill="none" fill-rule="evenodd">
        <path d="M3 3h18v18H3z"/>
        <path fill="#3143CA" fill-rule="nonzero" d="M8.685 6.06L7.612 4.988a7.819 7.819 0 0 0-3.09 5.887h1.5A6.334 6.334 0 0 1 8.685 6.06zm9.292 4.815h1.5a7.866 7.866 0 0 0-3.09-5.888L15.322 6.06a6.371 6.371 0 0 1 2.655 4.815zm-1.477.375c0-2.303-1.23-4.23-3.375-4.74V6c0-.623-.502-1.125-1.125-1.125S10.875 5.377 10.875 6v.51C8.723 7.02 7.5 8.94 7.5 11.25V15L6 16.5v.75h12v-.75L16.5 15v-3.75zM12 19.5c.105 0 .203-.008.3-.03a1.522 1.522 0 0 0 1.08-.885c.075-.18.112-.375.112-.585h-3A1.51 1.51 0 0 0 12 19.5z"/>
    </g>
</svg>
