<svg xmlns="http://www.w3.org/2000/svg" xmlns:xlink="http://www.w3.org/1999/xlink" width="24" height="24" viewBox="0 0 24 24">
    <defs>
        <path id="a" d="M17.79 7.364H9.21v3.477h4.939c-.46 2.209-2.386 3.477-4.94 3.477-3.014 0-5.442-2.373-5.442-5.318 0-2.945 2.428-5.318 5.442-5.318A5.4 5.4 0 0 1 12.6 4.868l2.68-2.618C13.646.86 11.552 0 9.21 0 4.101 0 0 4.01 0 9s4.102 9 9.21 9C13.813 18 18 14.727 18 9c0-.532-.084-1.105-.21-1.636z"/>
        <path id="c" d="M17.79 7.364H9.21v3.477h4.939c-.46 2.209-2.386 3.477-4.94 3.477-3.014 0-5.442-2.373-5.442-5.318 0-2.945 2.428-5.318 5.442-5.318A5.4 5.4 0 0 1 12.6 4.868l2.68-2.618C13.646.86 11.552 0 9.21 0 4.101 0 0 4.01 0 9s4.102 9 9.21 9C13.813 18 18 14.727 18 9c0-.532-.084-1.105-.21-1.636z"/>
        <path id="e" d="M17.79 7.364H9.21v3.477h4.939c-.46 2.209-2.386 3.477-4.94 3.477-3.014 0-5.442-2.373-5.442-5.318 0-2.945 2.428-5.318 5.442-5.318A5.4 5.4 0 0 1 12.6 4.868l2.68-2.618C13.646.86 11.552 0 9.21 0 4.101 0 0 4.01 0 9s4.102 9 9.21 9C13.813 18 18 14.727 18 9c0-.532-.084-1.105-.21-1.636z"/>
        <path id="g" d="M17.79 7.364H9.21v3.477h4.939c-.46 2.209-2.386 3.477-4.94 3.477-3.014 0-5.442-2.373-5.442-5.318 0-2.945 2.428-5.318 5.442-5.318A5.4 5.4 0 0 1 12.6 4.868l2.68-2.618C13.646.86 11.552 0 9.21 0 4.101 0 0 4.01 0 9s4.102 9 9.21 9C13.813 18 18 14.727 18 9c0-.532-.084-1.105-.21-1.636z"/>
    </defs>
    <g fill="none" fill-rule="evenodd">
        <path d="M0 0h24v24H0z"/>
        <g transform="translate(3 3)">
            <mask id="b" fill="#fff">
                <use xlink:href="#a"/>
            </mask>
            <path fill="#FBBC05" fill-rule="nonzero" d="M-.837 14.318V3.682L6.279 9z" mask="url(#b)"/>
        </g>
        <g transform="translate(3 3)">
            <mask id="d" fill="#fff">
                <use xlink:href="#c"/>
            </mask>
            <path fill="#EA4335" fill-rule="nonzero" d="M-.837 3.682L6.279 9l2.93-2.495 10.047-1.596V-.818H-.837z" mask="url(#d)"/>
        </g>
        <g transform="translate(3 3)">
            <mask id="f" fill="#fff">
                <use xlink:href="#e"/>
            </mask>
            <path fill="#34A853" fill-rule="nonzero" d="M-.837 14.318L11.72 4.91l3.307.41 4.228-6.137v19.636H-.837z" mask="url(#f)"/>
        </g>
        <g transform="translate(3 3)">
            <mask id="h" fill="#fff">
                <use xlink:href="#g"/>
            </mask>
            <path fill="#4285F4" fill-rule="nonzero" d="M19.256 18.818L6.279 9 4.605 7.773l14.65-4.091z" mask="url(#h)"/>
        </g>
    </g>
</svg>
