<svg xmlns="http://www.w3.org/2000/svg" width="25" height="24" viewBox="0 0 25 24">
    <g fill="none" fill-rule="evenodd">
        <ellipse cx="12.985" cy="12" fill="#E01540" rx="11.985" ry="12" transform="rotate(90 12.985 12)"/>
        <path d="M4.312 3.312h17v17h-17z"/>
        <path fill="#FFF" fill-rule="nonzero" d="M7.312 14.89c0 .603.268 1.143.687 1.52v1.217c0 .377.31.685.688.685h.687a.688.688 0 0 0 .688-.685v-.684h5.5v.684c0 .377.31.685.687.685h.688a.688.688 0 0 0 .687-.685V16.41c.42-.377.688-.917.688-1.52V8.05c0-2.395-2.462-2.737-5.5-2.737-3.04 0-5.5.342-5.5 2.737v6.842zm2.406.685a1.027 1.027 0 1 1 0-2.053 1.027 1.027 0 1 1 0 2.053zm6.187 0a1.027 1.027 0 1 1 0-2.053 1.027 1.027 0 1 1 0 2.053zm1.032-4.105h-8.25V8.049h8.25v3.42z"/>
    </g>
</svg>
